G04 #@! TF.FileFunction,Soldermask,Top*
%FSLAX46Y46*%
G04 Gerber Fmt 4.6, Leading zero omitted, Abs format (unit mm)*
G04 Created by KiCad (PCBNEW 4.0.7-e2-6376~58~ubuntu16.04.1) date Fri Jan 19 19:52:53 2018*
%MOMM*%
%LPD*%
G01*
G04 APERTURE LIST*
%ADD10C,0.100000*%
%ADD11C,1.924000*%
%ADD12C,5.480000*%
%ADD13O,2.100000X2.100000*%
%ADD14R,2.100000X2.100000*%
%ADD15R,1.600000X2.100000*%
%ADD16O,1.600000X2.100000*%
%ADD17C,3.448000*%
G04 APERTURE END LIST*
D10*
D11*
X142861000Y-134841000D03*
X142861000Y-132301000D03*
X142861000Y-129761000D03*
X142861000Y-127221000D03*
X142861000Y-124681000D03*
X142861000Y-122141000D03*
X142861000Y-119601000D03*
X142861000Y-117061000D03*
X142861000Y-114521000D03*
X142861000Y-111981000D03*
X142861000Y-109441000D03*
X142861000Y-106901000D03*
X142861000Y-104361000D03*
X142861000Y-101821000D03*
X142861000Y-99281000D03*
X142861000Y-96741000D03*
X142861000Y-94201000D03*
X142861000Y-91661000D03*
X142861000Y-89121000D03*
X142861000Y-86581000D03*
X120001000Y-86581000D03*
X120001000Y-89121000D03*
X120001000Y-91661000D03*
X120001000Y-94201000D03*
X120001000Y-96741000D03*
X120001000Y-99281000D03*
X120001000Y-101821000D03*
X120001000Y-104361000D03*
X120001000Y-109441000D03*
X120001000Y-111981000D03*
X120001000Y-114521000D03*
X120001000Y-117061000D03*
X120001000Y-119601000D03*
X120001000Y-122141000D03*
X120001000Y-124681000D03*
X120001000Y-127221000D03*
X120001000Y-129761000D03*
X120001000Y-132301000D03*
X120001000Y-106901000D03*
X120001000Y-134841000D03*
X142861000Y-134841000D03*
X142861000Y-132301000D03*
X142861000Y-129761000D03*
X142861000Y-127221000D03*
X142861000Y-124681000D03*
X142861000Y-122141000D03*
X142861000Y-119601000D03*
X142861000Y-117061000D03*
X142861000Y-114521000D03*
X142861000Y-111981000D03*
X142861000Y-109441000D03*
X142861000Y-106901000D03*
X142861000Y-104361000D03*
X142861000Y-101821000D03*
X142861000Y-99281000D03*
X142861000Y-96741000D03*
X142861000Y-94201000D03*
X142861000Y-91661000D03*
X142861000Y-89121000D03*
X142861000Y-86581000D03*
X120001000Y-86581000D03*
X120001000Y-89121000D03*
X120001000Y-91661000D03*
X120001000Y-94201000D03*
X120001000Y-96741000D03*
X120001000Y-99281000D03*
X120001000Y-101821000D03*
X120001000Y-104361000D03*
X120001000Y-109441000D03*
X120001000Y-111981000D03*
X120001000Y-114521000D03*
X120001000Y-117061000D03*
X120001000Y-119601000D03*
X120001000Y-122141000D03*
X120001000Y-124681000D03*
X120001000Y-127221000D03*
X120001000Y-129761000D03*
X120001000Y-132301000D03*
X120001000Y-106901000D03*
X120001000Y-134841000D03*
D12*
X123811000Y-132301000D03*
X139051000Y-132301000D03*
X123811000Y-110711000D03*
X139051000Y-110711000D03*
D11*
X122541000Y-127221000D03*
X122541000Y-124681000D03*
X122541000Y-122141000D03*
X122541000Y-119601000D03*
X122541000Y-117061000D03*
X122541000Y-114521000D03*
X140321000Y-124681000D03*
X140321000Y-122141000D03*
X140321000Y-119601000D03*
X140321000Y-117061000D03*
D13*
X156196000Y-119601000D03*
D14*
X156196000Y-114521000D03*
D13*
X156196000Y-117061000D03*
X163816000Y-119601000D03*
D14*
X163816000Y-114521000D03*
D13*
X163816000Y-117061000D03*
D15*
X173056000Y-116426000D03*
D16*
X175056000Y-116426000D03*
X177056000Y-116426000D03*
X179056000Y-116426000D03*
D13*
X166356000Y-119601000D03*
D14*
X166356000Y-114521000D03*
D13*
X166356000Y-117061000D03*
X153656000Y-119601000D03*
D14*
X153656000Y-114521000D03*
D13*
X153656000Y-117061000D03*
X161276000Y-119601000D03*
D14*
X161276000Y-114521000D03*
D13*
X161276000Y-117061000D03*
X158736000Y-119601000D03*
D14*
X158736000Y-114521000D03*
D13*
X158736000Y-117061000D03*
D17*
X156831000Y-75151000D03*
X156831000Y-108171000D03*
X177151000Y-108171000D03*
D11*
X156831000Y-78961000D03*
X156831000Y-81501000D03*
X156831000Y-84041000D03*
X156831000Y-86581000D03*
X156831000Y-89121000D03*
X156831000Y-91661000D03*
X156831000Y-94201000D03*
X156831000Y-96741000D03*
X156831000Y-99281000D03*
X156831000Y-101821000D03*
X177151000Y-101821000D03*
X177151000Y-99281000D03*
X177151000Y-96741000D03*
X177151000Y-94201000D03*
X177151000Y-91661000D03*
X177151000Y-89121000D03*
X177151000Y-86581000D03*
X177151000Y-84041000D03*
X177151000Y-81501000D03*
X177151000Y-78961000D03*
X160641000Y-109441000D03*
X163181000Y-109441000D03*
X165721000Y-109441000D03*
X168261000Y-109441000D03*
X170801000Y-109441000D03*
X173341000Y-109441000D03*
D17*
X177151000Y-75151000D03*
M02*
