M48
;DRILL file {KiCad 4.0.7-e2-6376~58~ubuntu16.04.1} date Fri Jan 19 19:54:01 2018
;FORMAT={3:3/ absolute / metric / suppress leading zeros}
FMAT,2
METRIC,TZ
T1C0.400
T2C0.750
T3C0.762
T4C1.000
T5C2.032
T6C3.048
%
G90
G05
M71
T1
X136144Y-79756
X137414Y-78105
X141083Y-64102
X142099Y-64102
X143115Y-64102
X144004Y-64102
X145020Y-64102
X146036Y-64102
X154672Y-64102
X155688Y-64102
X156704Y-64102
X157720Y-64102
X158736Y-64102
X159752Y-64102
X161276Y-101821
X164959Y-64102
X166991Y-137381
X169531Y-132301
X175881Y-124681
X177151Y-124681
T2
X173056Y-116426
X175056Y-116426
X177056Y-116426
X179056Y-116426
T3
X120001Y-86581
X120001Y-86581
X120001Y-89121
X120001Y-89121
X120001Y-91661
X120001Y-91661
X120001Y-94201
X120001Y-94201
X120001Y-96741
X120001Y-96741
X120001Y-99281
X120001Y-99281
X120001Y-101821
X120001Y-101821
X120001Y-104361
X120001Y-104361
X120001Y-106901
X120001Y-106901
X120001Y-109441
X120001Y-109441
X120001Y-111981
X120001Y-111981
X120001Y-114521
X120001Y-114521
X120001Y-117061
X120001Y-117061
X120001Y-119601
X120001Y-119601
X120001Y-122141
X120001Y-122141
X120001Y-124681
X120001Y-124681
X120001Y-127221
X120001Y-127221
X120001Y-129761
X120001Y-129761
X120001Y-132301
X120001Y-132301
X120001Y-134841
X120001Y-134841
X122541Y-114521
X122541Y-117061
X122541Y-119601
X122541Y-122141
X122541Y-124681
X122541Y-127221
X140321Y-117061
X140321Y-119601
X140321Y-122141
X140321Y-124681
X142861Y-86581
X142861Y-86581
X142861Y-89121
X142861Y-89121
X142861Y-91661
X142861Y-91661
X142861Y-94201
X142861Y-94201
X142861Y-96741
X142861Y-96741
X142861Y-99281
X142861Y-99281
X142861Y-101821
X142861Y-101821
X142861Y-104361
X142861Y-104361
X142861Y-106901
X142861Y-106901
X142861Y-109441
X142861Y-109441
X142861Y-111981
X142861Y-111981
X142861Y-114521
X142861Y-114521
X142861Y-117061
X142861Y-117061
X142861Y-119601
X142861Y-119601
X142861Y-122141
X142861Y-122141
X142861Y-124681
X142861Y-124681
X142861Y-127221
X142861Y-127221
X142861Y-129761
X142861Y-129761
X142861Y-132301
X142861Y-132301
X142861Y-134841
X142861Y-134841
X156831Y-78961
X156831Y-81501
X156831Y-84041
X156831Y-86581
X156831Y-89121
X156831Y-91661
X156831Y-94201
X156831Y-96741
X156831Y-99281
X156831Y-101821
X177151Y-78961
X177151Y-81501
X177151Y-84041
X177151Y-86581
X177151Y-89121
X177151Y-91661
X177151Y-94201
X177151Y-96741
X177151Y-99281
X177151Y-101821
T4
X153656Y-114521
X153656Y-117061
X153656Y-119601
X156196Y-114521
X156196Y-117061
X156196Y-119601
X158736Y-114521
X158736Y-117061
X158736Y-119601
X161276Y-114521
X161276Y-117061
X161276Y-119601
X163816Y-114521
X163816Y-117061
X163816Y-119601
X166356Y-114521
X166356Y-117061
X166356Y-119601
T5
X156831Y-75151
X156831Y-108171
X177151Y-75151
X177151Y-108171
T6
X123811Y-110711
X123811Y-132301
X139051Y-110711
X139051Y-132301
T0
M30
