G04 #@! TF.FileFunction,Copper,L1,Top,Signal*
%FSLAX46Y46*%
G04 Gerber Fmt 4.6, Leading zero omitted, Abs format (unit mm)*
G04 Created by KiCad (PCBNEW 4.0.7-e2-6376~58~ubuntu16.04.1) date Fri Jan 19 19:52:53 2018*
%MOMM*%
%LPD*%
G01*
G04 APERTURE LIST*
%ADD10C,0.100000*%
%ADD11C,1.524000*%
%ADD12C,5.080000*%
%ADD13O,1.700000X1.700000*%
%ADD14R,1.700000X1.700000*%
%ADD15R,1.200000X1.700000*%
%ADD16O,1.200000X1.700000*%
%ADD17C,3.048000*%
%ADD18C,0.600000*%
%ADD19C,1.000000*%
%ADD20C,0.400000*%
G04 APERTURE END LIST*
D10*
D11*
X142861000Y-134841000D03*
X142861000Y-132301000D03*
X142861000Y-129761000D03*
X142861000Y-127221000D03*
X142861000Y-124681000D03*
X142861000Y-122141000D03*
X142861000Y-119601000D03*
X142861000Y-117061000D03*
X142861000Y-114521000D03*
X142861000Y-111981000D03*
X142861000Y-109441000D03*
X142861000Y-106901000D03*
X142861000Y-104361000D03*
X142861000Y-101821000D03*
X142861000Y-99281000D03*
X142861000Y-96741000D03*
X142861000Y-94201000D03*
X142861000Y-91661000D03*
X142861000Y-89121000D03*
X142861000Y-86581000D03*
X120001000Y-86581000D03*
X120001000Y-89121000D03*
X120001000Y-91661000D03*
X120001000Y-94201000D03*
X120001000Y-96741000D03*
X120001000Y-99281000D03*
X120001000Y-101821000D03*
X120001000Y-104361000D03*
X120001000Y-109441000D03*
X120001000Y-111981000D03*
X120001000Y-114521000D03*
X120001000Y-117061000D03*
X120001000Y-119601000D03*
X120001000Y-122141000D03*
X120001000Y-124681000D03*
X120001000Y-127221000D03*
X120001000Y-129761000D03*
X120001000Y-132301000D03*
X120001000Y-106901000D03*
X120001000Y-134841000D03*
X142861000Y-134841000D03*
X142861000Y-132301000D03*
X142861000Y-129761000D03*
X142861000Y-127221000D03*
X142861000Y-124681000D03*
X142861000Y-122141000D03*
X142861000Y-119601000D03*
X142861000Y-117061000D03*
X142861000Y-114521000D03*
X142861000Y-111981000D03*
X142861000Y-109441000D03*
X142861000Y-106901000D03*
X142861000Y-104361000D03*
X142861000Y-101821000D03*
X142861000Y-99281000D03*
X142861000Y-96741000D03*
X142861000Y-94201000D03*
X142861000Y-91661000D03*
X142861000Y-89121000D03*
X142861000Y-86581000D03*
X120001000Y-86581000D03*
X120001000Y-89121000D03*
X120001000Y-91661000D03*
X120001000Y-94201000D03*
X120001000Y-96741000D03*
X120001000Y-99281000D03*
X120001000Y-101821000D03*
X120001000Y-104361000D03*
X120001000Y-109441000D03*
X120001000Y-111981000D03*
X120001000Y-114521000D03*
X120001000Y-117061000D03*
X120001000Y-119601000D03*
X120001000Y-122141000D03*
X120001000Y-124681000D03*
X120001000Y-127221000D03*
X120001000Y-129761000D03*
X120001000Y-132301000D03*
X120001000Y-106901000D03*
X120001000Y-134841000D03*
D12*
X123811000Y-132301000D03*
X139051000Y-132301000D03*
X123811000Y-110711000D03*
X139051000Y-110711000D03*
D11*
X122541000Y-127221000D03*
X122541000Y-124681000D03*
X122541000Y-122141000D03*
X122541000Y-119601000D03*
X122541000Y-117061000D03*
X122541000Y-114521000D03*
X140321000Y-124681000D03*
X140321000Y-122141000D03*
X140321000Y-119601000D03*
X140321000Y-117061000D03*
D13*
X156196000Y-119601000D03*
D14*
X156196000Y-114521000D03*
D13*
X156196000Y-117061000D03*
X163816000Y-119601000D03*
D14*
X163816000Y-114521000D03*
D13*
X163816000Y-117061000D03*
D15*
X173056000Y-116426000D03*
D16*
X175056000Y-116426000D03*
X177056000Y-116426000D03*
X179056000Y-116426000D03*
D13*
X166356000Y-119601000D03*
D14*
X166356000Y-114521000D03*
D13*
X166356000Y-117061000D03*
X153656000Y-119601000D03*
D14*
X153656000Y-114521000D03*
D13*
X153656000Y-117061000D03*
X161276000Y-119601000D03*
D14*
X161276000Y-114521000D03*
D13*
X161276000Y-117061000D03*
X158736000Y-119601000D03*
D14*
X158736000Y-114521000D03*
D13*
X158736000Y-117061000D03*
D17*
X156831000Y-75151000D03*
X156831000Y-108171000D03*
X177151000Y-108171000D03*
D11*
X156831000Y-78961000D03*
X156831000Y-81501000D03*
X156831000Y-84041000D03*
X156831000Y-86581000D03*
X156831000Y-89121000D03*
X156831000Y-91661000D03*
X156831000Y-94201000D03*
X156831000Y-96741000D03*
X156831000Y-99281000D03*
X156831000Y-101821000D03*
X177151000Y-101821000D03*
X177151000Y-99281000D03*
X177151000Y-96741000D03*
X177151000Y-94201000D03*
X177151000Y-91661000D03*
X177151000Y-89121000D03*
X177151000Y-86581000D03*
X177151000Y-84041000D03*
X177151000Y-81501000D03*
X177151000Y-78961000D03*
D17*
X177151000Y-75151000D03*
D18*
X164959000Y-64102000D03*
X169531000Y-132301000D03*
X161276000Y-101821000D03*
X136144000Y-79756000D03*
X137414000Y-78105000D03*
X154672000Y-64102000D03*
X155688000Y-64102000D03*
X156704000Y-64102000D03*
X157720000Y-64102000D03*
X158736000Y-64102000D03*
X159752000Y-64102000D03*
X141083000Y-64102000D03*
X142099000Y-64102000D03*
X143115000Y-64102000D03*
X144004000Y-64102000D03*
X145020000Y-64102000D03*
X146036000Y-64102000D03*
X166991000Y-137381000D03*
X175881000Y-124681000D03*
X177151000Y-124681000D03*
D19*
X177151000Y-101821000D02*
X161276000Y-101821000D01*
D20*
X164959000Y-64102000D02*
X164959000Y-94959000D01*
X164959000Y-94959000D02*
X165000000Y-95000000D01*
X165000000Y-95000000D02*
X165000000Y-98097000D01*
X165000000Y-98097000D02*
X161276000Y-101821000D01*
D19*
X169531000Y-132301000D02*
X170547000Y-131285000D01*
X170547000Y-131285000D02*
X170547000Y-116862000D01*
X170547000Y-116862000D02*
X169531000Y-115846000D01*
X142861000Y-134841000D02*
X141783370Y-134841000D01*
X141783370Y-134841000D02*
X141083369Y-135541001D01*
X141083369Y-135541001D02*
X135941001Y-135541001D01*
X135941001Y-135541001D02*
X123302999Y-122902999D01*
X123302999Y-122902999D02*
X122541000Y-122141000D01*
X169531000Y-115846000D02*
X172126000Y-115846000D01*
X172126000Y-115846000D02*
X172535990Y-116255990D01*
X172535990Y-116255990D02*
X172535990Y-116426000D01*
X142861000Y-134841000D02*
X166991000Y-134841000D01*
X166991000Y-134841000D02*
X169531000Y-132301000D01*
X169531000Y-115846000D02*
X168206000Y-114521000D01*
X168206000Y-114521000D02*
X166356000Y-114521000D01*
X163816000Y-114521000D02*
X166356000Y-114521000D01*
X161276000Y-114521000D02*
X163816000Y-114521000D01*
X158736000Y-114521000D02*
X161276000Y-114521000D01*
X156196000Y-114521000D02*
X158736000Y-114521000D01*
X153656000Y-114521000D02*
X156196000Y-114521000D01*
D20*
X173436000Y-116176000D02*
X173436000Y-116426000D01*
D19*
X142861000Y-132301000D02*
X166356000Y-132301000D01*
X168261000Y-130396000D02*
X168261000Y-118966000D01*
X166356000Y-132301000D02*
X168261000Y-130396000D01*
X168261000Y-118966000D02*
X167205999Y-117910999D01*
X167205999Y-117910999D02*
X166356000Y-117061000D01*
X153656000Y-117061000D02*
X156196000Y-117061000D01*
X158736000Y-117061000D02*
X156196000Y-117061000D01*
X161276000Y-117061000D02*
X158736000Y-117061000D01*
X163816000Y-117061000D02*
X161276000Y-117061000D01*
X166356000Y-117061000D02*
X163816000Y-117061000D01*
D20*
X127621000Y-119601000D02*
X132701000Y-114521000D01*
X132701000Y-114521000D02*
X142861000Y-114521000D01*
X122541000Y-119601000D02*
X127621000Y-119601000D01*
X131030999Y-113651001D02*
X127621000Y-117061000D01*
X127621000Y-117061000D02*
X122541000Y-117061000D01*
X142861000Y-111981000D02*
X141190999Y-113651001D01*
X141190999Y-113651001D02*
X131030999Y-113651001D01*
X136144000Y-80180264D02*
X136144000Y-79756000D01*
X120001000Y-101821000D02*
X131224000Y-101821000D01*
X131224000Y-101821000D02*
X136144000Y-96901000D01*
X136144000Y-96901000D02*
X136144000Y-80180264D01*
X137114001Y-78404999D02*
X137414000Y-78105000D01*
X136844001Y-78674999D02*
X137114001Y-78404999D01*
X136844001Y-97049542D02*
X136844001Y-78674999D01*
X129532543Y-104361000D02*
X136844001Y-97049542D01*
X120001000Y-104361000D02*
X129532543Y-104361000D01*
X154672000Y-64102000D02*
X154672000Y-70078360D01*
X154672000Y-70078360D02*
X154612180Y-70138180D01*
X154612180Y-70138180D02*
X144325954Y-80544046D01*
X144325954Y-80544046D02*
X144325953Y-105436047D01*
X144325953Y-105436047D02*
X142861000Y-106901000D01*
X155688000Y-64102000D02*
X155688000Y-70052310D01*
X144925963Y-80814347D02*
X155688000Y-70052310D01*
X142861000Y-109441000D02*
X144925962Y-107376038D01*
X144925962Y-107376038D02*
X144925963Y-80814347D01*
X156704000Y-64102000D02*
X156704000Y-69884852D01*
X156704000Y-69884852D02*
X145525972Y-81062880D01*
X145525972Y-81062880D02*
X145525971Y-114396029D01*
X145525971Y-114396029D02*
X142861000Y-117061000D01*
X142861000Y-119601000D02*
X143622999Y-118839001D01*
X143622999Y-118839001D02*
X143712980Y-118839001D01*
X143712980Y-118839001D02*
X146125981Y-116426000D01*
X146125981Y-81311413D02*
X157720000Y-69717394D01*
X146125981Y-116426000D02*
X146125981Y-81311413D01*
X157720000Y-69717394D02*
X157720000Y-69642000D01*
X157720000Y-69642000D02*
X157720000Y-64102000D01*
X142861000Y-122141000D02*
X146725989Y-118276011D01*
X146725989Y-118276011D02*
X146725990Y-81559946D01*
X146725990Y-81559946D02*
X158736000Y-69549936D01*
X158736000Y-69549936D02*
X158736000Y-69474542D01*
X158736000Y-69474542D02*
X158736000Y-64102000D01*
X147325999Y-81808479D02*
X159752000Y-69382478D01*
X159752000Y-64102000D02*
X159752000Y-69382478D01*
X159752000Y-69382478D02*
X159696000Y-69438478D01*
X142861000Y-124681000D02*
X147325999Y-120216001D01*
X147325999Y-120216001D02*
X147325999Y-81808479D01*
X137447950Y-79115340D02*
X137447950Y-98947950D01*
X141083000Y-75480290D02*
X137447950Y-79115340D01*
X142099001Y-103599001D02*
X142861000Y-104361000D01*
X141083000Y-64102000D02*
X141083000Y-75480290D01*
X137447950Y-98947950D02*
X142099001Y-103599001D01*
X142099001Y-101059001D02*
X142861000Y-101821000D01*
X142099000Y-75312832D02*
X138047960Y-79363872D01*
X138047960Y-79363872D02*
X138047960Y-97007960D01*
X142099000Y-64102000D02*
X142099000Y-75312832D01*
X138047960Y-97007960D02*
X142099001Y-101059001D01*
X142099001Y-98519001D02*
X142861000Y-99281000D01*
X138647970Y-95067970D02*
X142099001Y-98519001D01*
X138647970Y-79612404D02*
X138647970Y-95067970D01*
X143115000Y-64102000D02*
X143115000Y-75145374D01*
X143115000Y-75145374D02*
X138647970Y-79612404D01*
X139247980Y-79860936D02*
X139247980Y-93127980D01*
X139247980Y-93127980D02*
X142099001Y-95979001D01*
X144004000Y-64102000D02*
X144004000Y-75104916D01*
X144004000Y-75104916D02*
X139247980Y-79860936D01*
X142099001Y-95979001D02*
X142861000Y-96741000D01*
X139847990Y-91187990D02*
X142099001Y-93439001D01*
X139847990Y-80109468D02*
X139847990Y-91187990D01*
X145020000Y-74937458D02*
X139847990Y-80109468D01*
X145020000Y-64102000D02*
X145020000Y-74937458D01*
X142099001Y-93439001D02*
X142861000Y-94201000D01*
X140448000Y-89248000D02*
X142861000Y-91661000D01*
X146036000Y-74770000D02*
X140448000Y-80358000D01*
X146036000Y-64102000D02*
X146036000Y-74770000D01*
X140448000Y-80358000D02*
X140448000Y-89248000D01*
X120001000Y-137381000D02*
X166991000Y-137381000D01*
X166991000Y-137381000D02*
X167017434Y-137381000D01*
X120001000Y-137381000D02*
X120001000Y-134841000D01*
X120001000Y-134841000D02*
X120001000Y-135918630D01*
X175056000Y-116426000D02*
X175056000Y-116676000D01*
X175056000Y-116676000D02*
X175881000Y-117501000D01*
X175881000Y-117501000D02*
X175881000Y-124681000D01*
X175436000Y-116176000D02*
X175436000Y-116426000D01*
X177056000Y-116426000D02*
X177056000Y-116676000D01*
X177151000Y-116771000D02*
X177151000Y-124681000D01*
X177056000Y-116676000D02*
X177151000Y-116771000D01*
M02*
