G04 #@! TF.FileFunction,Copper,L2,Bot,Signal*
%FSLAX46Y46*%
G04 Gerber Fmt 4.6, Leading zero omitted, Abs format (unit mm)*
G04 Created by KiCad (PCBNEW 4.0.7-e2-6376~58~ubuntu16.04.1) date Fri Jan 19 19:52:53 2018*
%MOMM*%
%LPD*%
G01*
G04 APERTURE LIST*
%ADD10C,0.100000*%
%ADD11C,1.524000*%
%ADD12R,0.600000X1.550000*%
%ADD13C,5.080000*%
%ADD14O,1.700000X1.700000*%
%ADD15R,1.700000X1.700000*%
%ADD16R,1.200000X1.700000*%
%ADD17O,1.200000X1.700000*%
%ADD18C,3.048000*%
%ADD19R,1.200000X1.800000*%
%ADD20C,0.600000*%
%ADD21C,1.000000*%
%ADD22C,0.400000*%
G04 APERTURE END LIST*
D10*
D11*
X142861000Y-134841000D03*
X142861000Y-132301000D03*
X142861000Y-129761000D03*
X142861000Y-127221000D03*
X142861000Y-124681000D03*
X142861000Y-122141000D03*
X142861000Y-119601000D03*
X142861000Y-117061000D03*
X142861000Y-114521000D03*
X142861000Y-111981000D03*
X142861000Y-109441000D03*
X142861000Y-106901000D03*
X142861000Y-104361000D03*
X142861000Y-101821000D03*
X142861000Y-99281000D03*
X142861000Y-96741000D03*
X142861000Y-94201000D03*
X142861000Y-91661000D03*
X142861000Y-89121000D03*
X142861000Y-86581000D03*
X120001000Y-86581000D03*
X120001000Y-89121000D03*
X120001000Y-91661000D03*
X120001000Y-94201000D03*
X120001000Y-96741000D03*
X120001000Y-99281000D03*
X120001000Y-101821000D03*
X120001000Y-104361000D03*
X120001000Y-109441000D03*
X120001000Y-111981000D03*
X120001000Y-114521000D03*
X120001000Y-117061000D03*
X120001000Y-119601000D03*
X120001000Y-122141000D03*
X120001000Y-124681000D03*
X120001000Y-127221000D03*
X120001000Y-129761000D03*
X120001000Y-132301000D03*
X120001000Y-106901000D03*
X120001000Y-134841000D03*
X142861000Y-134841000D03*
X142861000Y-132301000D03*
X142861000Y-129761000D03*
X142861000Y-127221000D03*
X142861000Y-124681000D03*
X142861000Y-122141000D03*
X142861000Y-119601000D03*
X142861000Y-117061000D03*
X142861000Y-114521000D03*
X142861000Y-111981000D03*
X142861000Y-109441000D03*
X142861000Y-106901000D03*
X142861000Y-104361000D03*
X142861000Y-101821000D03*
X142861000Y-99281000D03*
X142861000Y-96741000D03*
X142861000Y-94201000D03*
X142861000Y-91661000D03*
X142861000Y-89121000D03*
X142861000Y-86581000D03*
X120001000Y-86581000D03*
X120001000Y-89121000D03*
X120001000Y-91661000D03*
X120001000Y-94201000D03*
X120001000Y-96741000D03*
X120001000Y-99281000D03*
X120001000Y-101821000D03*
X120001000Y-104361000D03*
X120001000Y-109441000D03*
X120001000Y-111981000D03*
X120001000Y-114521000D03*
X120001000Y-117061000D03*
X120001000Y-119601000D03*
X120001000Y-122141000D03*
X120001000Y-124681000D03*
X120001000Y-127221000D03*
X120001000Y-129761000D03*
X120001000Y-132301000D03*
X120001000Y-106901000D03*
X120001000Y-134841000D03*
D12*
X178421000Y-131986000D03*
X177151000Y-131986000D03*
X175881000Y-131986000D03*
X174611000Y-131986000D03*
X174611000Y-126586000D03*
X175881000Y-126586000D03*
X177151000Y-126586000D03*
X178421000Y-126586000D03*
D13*
X123811000Y-132301000D03*
X139051000Y-132301000D03*
X123811000Y-110711000D03*
X139051000Y-110711000D03*
D11*
X122541000Y-127221000D03*
X122541000Y-124681000D03*
X122541000Y-122141000D03*
X122541000Y-119601000D03*
X122541000Y-117061000D03*
X122541000Y-114521000D03*
X140321000Y-124681000D03*
X140321000Y-122141000D03*
X140321000Y-119601000D03*
X140321000Y-117061000D03*
D14*
X156196000Y-119601000D03*
D15*
X156196000Y-114521000D03*
D14*
X156196000Y-117061000D03*
X163816000Y-119601000D03*
D15*
X163816000Y-114521000D03*
D14*
X163816000Y-117061000D03*
D16*
X173056000Y-116426000D03*
D17*
X175056000Y-116426000D03*
X177056000Y-116426000D03*
X179056000Y-116426000D03*
D14*
X166356000Y-119601000D03*
D15*
X166356000Y-114521000D03*
D14*
X166356000Y-117061000D03*
X153656000Y-119601000D03*
D15*
X153656000Y-114521000D03*
D14*
X153656000Y-117061000D03*
X161276000Y-119601000D03*
D15*
X161276000Y-114521000D03*
D14*
X161276000Y-117061000D03*
X158736000Y-119601000D03*
D15*
X158736000Y-114521000D03*
D14*
X158736000Y-117061000D03*
D18*
X156831000Y-75151000D03*
X156831000Y-108171000D03*
X177151000Y-108171000D03*
D11*
X156831000Y-78961000D03*
X156831000Y-81501000D03*
X156831000Y-84041000D03*
X156831000Y-86581000D03*
X156831000Y-89121000D03*
X156831000Y-91661000D03*
X156831000Y-94201000D03*
X156831000Y-96741000D03*
X156831000Y-99281000D03*
X156831000Y-101821000D03*
X177151000Y-101821000D03*
X177151000Y-99281000D03*
X177151000Y-96741000D03*
X177151000Y-94201000D03*
X177151000Y-91661000D03*
X177151000Y-89121000D03*
X177151000Y-86581000D03*
X177151000Y-84041000D03*
X177151000Y-81501000D03*
X177151000Y-78961000D03*
D18*
X177151000Y-75151000D03*
D12*
X139036000Y-59276000D03*
X140036000Y-59276000D03*
X141036000Y-59276000D03*
X142036000Y-59276000D03*
X143036000Y-59276000D03*
X144036000Y-59276000D03*
X145036000Y-59276000D03*
X146036000Y-59276000D03*
D19*
X137736000Y-55401000D03*
X147336000Y-55401000D03*
D12*
X152696000Y-59308500D03*
X153696000Y-59308500D03*
X154696000Y-59308500D03*
X155696000Y-59308500D03*
X156696000Y-59308500D03*
X157696000Y-59308500D03*
X158696000Y-59308500D03*
X159696000Y-59308500D03*
D19*
X151396000Y-55433500D03*
X160996000Y-55433500D03*
D20*
X164959000Y-64102000D03*
X169531000Y-132301000D03*
X161276000Y-101821000D03*
X136144000Y-79756000D03*
X137414000Y-78105000D03*
X154672000Y-64102000D03*
X155688000Y-64102000D03*
X156704000Y-64102000D03*
X157720000Y-64102000D03*
X158736000Y-64102000D03*
X159752000Y-64102000D03*
X141083000Y-64102000D03*
X142099000Y-64102000D03*
X143115000Y-64102000D03*
X144004000Y-64102000D03*
X145020000Y-64102000D03*
X146036000Y-64102000D03*
X166991000Y-137381000D03*
X175881000Y-124681000D03*
X177151000Y-124681000D03*
D21*
X161276000Y-101821000D02*
X156831000Y-101821000D01*
D22*
X152835999Y-57833499D02*
X152696000Y-57973498D01*
X152696000Y-57973498D02*
X152696000Y-59308500D01*
X149888499Y-57800999D02*
X139175999Y-57800999D01*
X139036000Y-57940998D02*
X139036000Y-59276000D01*
X139175999Y-57800999D02*
X139036000Y-57940998D01*
D21*
X177151000Y-131986000D02*
X177151000Y-130920998D01*
X177151000Y-130920998D02*
X175991002Y-129761000D01*
X175991002Y-129761000D02*
X172071000Y-129761000D01*
X172071000Y-129761000D02*
X169531000Y-132301000D01*
D22*
X160556001Y-57833499D02*
X164959000Y-62236498D01*
X164959000Y-62236498D02*
X164959000Y-64102000D01*
X160556001Y-57833499D02*
X152835999Y-57833499D01*
X152696000Y-59308500D02*
X151396000Y-59308500D01*
X151396000Y-59308500D02*
X149888499Y-57800999D01*
D21*
X166356000Y-106901000D02*
X164503893Y-105048893D01*
X164503893Y-105048893D02*
X161276000Y-101821000D01*
X166356000Y-114521000D02*
X166356000Y-106901000D01*
D22*
X173330522Y-68039000D02*
X152614498Y-68039000D01*
X152614498Y-68039000D02*
X149677499Y-65102001D01*
X180656000Y-114576000D02*
X180656000Y-75364478D01*
X180656000Y-75364478D02*
X173330522Y-68039000D01*
X140036000Y-59276000D02*
X140036000Y-64535002D01*
X140602999Y-65102001D02*
X149677499Y-65102001D01*
X149677499Y-65102001D02*
X153696000Y-61083500D01*
X140036000Y-64535002D02*
X140602999Y-65102001D01*
X153696000Y-61083500D02*
X153696000Y-59308500D01*
X180656000Y-114576000D02*
X179056000Y-116176000D01*
D21*
X179056000Y-116176000D02*
X179056000Y-116426000D01*
X179056000Y-116176000D02*
X162161000Y-99281000D01*
X162161000Y-99281000D02*
X157908630Y-99281000D01*
X157908630Y-99281000D02*
X156831000Y-99281000D01*
X179056000Y-116176000D02*
X177456000Y-114576000D01*
X177456000Y-114576000D02*
X170043081Y-114576000D01*
X167558081Y-117061000D02*
X166356000Y-117061000D01*
X170043081Y-114576000D02*
X167558081Y-117061000D01*
X142861000Y-132301000D02*
X144323001Y-133763001D01*
X144323001Y-133763001D02*
X144323001Y-135542761D01*
X144323001Y-135542761D02*
X143562761Y-136303001D01*
X143562761Y-136303001D02*
X132608203Y-136303001D01*
X123302999Y-127982999D02*
X122541000Y-127221000D01*
X132608203Y-136303001D02*
X124288201Y-127982999D01*
X124288201Y-127982999D02*
X123302999Y-127982999D01*
D22*
X156850001Y-110095001D02*
X160025999Y-113270999D01*
X150157097Y-105026012D02*
X155226086Y-110095001D01*
X145568459Y-100443001D02*
X150151469Y-105026012D01*
X132317597Y-97513969D02*
X135246627Y-100443001D01*
X132311500Y-97513969D02*
X132317597Y-97513969D01*
X131549497Y-96751967D02*
X132311500Y-97513969D01*
X125091967Y-96751967D02*
X131549497Y-96751967D01*
X155226086Y-110095001D02*
X156850001Y-110095001D01*
X120001000Y-91661000D02*
X125091967Y-96751967D01*
X160426001Y-118751001D02*
X161276000Y-119601000D01*
X135246627Y-100443001D02*
X145568459Y-100443001D01*
X160025999Y-113270999D02*
X160025999Y-118350999D01*
X160025999Y-118350999D02*
X160426001Y-118751001D01*
X150151469Y-105026012D02*
X150157097Y-105026012D01*
X162526001Y-118311001D02*
X162966001Y-118751001D01*
X162526001Y-111050543D02*
X162526001Y-118311001D01*
X149378459Y-97903001D02*
X162526001Y-111050543D01*
X133555170Y-97903001D02*
X149378459Y-97903001D01*
X131804125Y-96151956D02*
X133555170Y-97903001D01*
X127031956Y-96151956D02*
X131804125Y-96151956D01*
X120001000Y-89121000D02*
X127031956Y-96151956D01*
X162966001Y-118751001D02*
X163816000Y-119601000D01*
X121163001Y-87743001D02*
X121163001Y-89434459D01*
X165506001Y-118751001D02*
X166356000Y-119601000D01*
X120001000Y-86581000D02*
X121163001Y-87743001D01*
X127280487Y-95551945D02*
X147875945Y-95551945D01*
X121163001Y-89434459D02*
X127280487Y-95551945D01*
X147875945Y-95551945D02*
X165066001Y-112742001D01*
X165066001Y-112742001D02*
X165066001Y-118311001D01*
X165066001Y-118311001D02*
X165506001Y-118751001D01*
X120001000Y-99281000D02*
X120730000Y-98552000D01*
X120730000Y-98552000D02*
X130803902Y-98552000D01*
X130803902Y-98552000D02*
X131532902Y-99281000D01*
X140754203Y-108063001D02*
X143388001Y-108063001D01*
X143388001Y-108063001D02*
X148576000Y-113251000D01*
X148576000Y-113251000D02*
X152386000Y-113251000D01*
X131572000Y-99314000D02*
X140028999Y-107770999D01*
X140028999Y-107770999D02*
X140462201Y-107770999D01*
X140462201Y-107770999D02*
X140754203Y-108063001D01*
X152386000Y-113251000D02*
X152386000Y-118331000D01*
X152386000Y-118331000D02*
X153656000Y-119601000D01*
X138629543Y-105523001D02*
X131820533Y-98713991D01*
X120762999Y-97502999D02*
X120001000Y-96741000D01*
X148951373Y-105523001D02*
X138629543Y-105523001D01*
X149660034Y-106226034D02*
X149654405Y-106226034D01*
X131814435Y-98713991D02*
X131052433Y-97951989D01*
X149654405Y-106226034D02*
X148951373Y-105523001D01*
X154906001Y-111472001D02*
X149660034Y-106226034D01*
X154906001Y-118311001D02*
X154906001Y-111472001D01*
X121211989Y-97951989D02*
X120762999Y-97502999D01*
X156196000Y-119601000D02*
X154906001Y-118311001D01*
X131052433Y-97951989D02*
X121211989Y-97951989D01*
X131820533Y-98713991D02*
X131814435Y-98713991D01*
X157446001Y-118311001D02*
X157886001Y-118751001D01*
X120001000Y-94201000D02*
X123151978Y-97351978D01*
X132069065Y-98113980D02*
X136938085Y-102983001D01*
X136938085Y-102983001D02*
X147259917Y-102983001D01*
X149908566Y-105626023D02*
X157446001Y-113163458D01*
X147259917Y-102983001D02*
X149902937Y-105626023D01*
X131300965Y-97351978D02*
X132062968Y-98113980D01*
X132062968Y-98113980D02*
X132069065Y-98113980D01*
X123151978Y-97351978D02*
X131300965Y-97351978D01*
X149902937Y-105626023D02*
X149908566Y-105626023D01*
X157886001Y-118751001D02*
X158736000Y-119601000D01*
X157446001Y-113163458D02*
X157446001Y-118311001D01*
X137370736Y-77089000D02*
X136144000Y-78315736D01*
X175279000Y-77089000D02*
X137370736Y-77089000D01*
X136144000Y-79331736D02*
X136144000Y-79756000D01*
X136144000Y-78315736D02*
X136144000Y-79331736D01*
X177151000Y-78961000D02*
X175279000Y-77089000D01*
X137795000Y-77724000D02*
X137713999Y-77805001D01*
X177151000Y-81501000D02*
X173374000Y-77724000D01*
X173374000Y-77724000D02*
X137795000Y-77724000D01*
X137713999Y-77805001D02*
X137414000Y-78105000D01*
X142861000Y-89121000D02*
X154291000Y-89121000D01*
X154291000Y-89121000D02*
X156831000Y-91661000D01*
X154696000Y-59308500D02*
X154696000Y-64078000D01*
X154696000Y-64078000D02*
X154672000Y-64102000D01*
X155696000Y-59308500D02*
X155696000Y-64094000D01*
X155696000Y-64094000D02*
X155688000Y-64102000D01*
X156696000Y-59308500D02*
X156696000Y-64094000D01*
X156696000Y-64094000D02*
X156704000Y-64102000D01*
X157720000Y-60507500D02*
X157720000Y-64102000D01*
X157696000Y-59308500D02*
X157696000Y-60483500D01*
X157696000Y-60483500D02*
X157720000Y-60507500D01*
X158696000Y-59308500D02*
X158696000Y-64062000D01*
X158696000Y-64062000D02*
X158736000Y-64102000D01*
X159696000Y-59308500D02*
X159696000Y-64046000D01*
X159696000Y-64046000D02*
X159752000Y-64102000D01*
X141036000Y-59276000D02*
X141036000Y-64055000D01*
X141036000Y-64055000D02*
X141083000Y-64102000D01*
X142036000Y-59276000D02*
X142036000Y-64039000D01*
X142036000Y-64039000D02*
X142099000Y-64102000D01*
X143036000Y-59276000D02*
X143036000Y-64023000D01*
X143036000Y-64023000D02*
X143115000Y-64102000D01*
X144036000Y-59276000D02*
X144036000Y-64070000D01*
X144036000Y-64070000D02*
X144004000Y-64102000D01*
X145036000Y-59276000D02*
X145036000Y-64086000D01*
X145036000Y-64086000D02*
X145020000Y-64102000D01*
X146036000Y-59276000D02*
X146036000Y-64102000D01*
X171349998Y-131986000D02*
X165667998Y-137668000D01*
X118364000Y-111078000D02*
X119239001Y-110202999D01*
X174611000Y-131986000D02*
X171349998Y-131986000D01*
X118364000Y-134923762D02*
X118364000Y-111078000D01*
X165667998Y-137668000D02*
X121108238Y-137668000D01*
X121108238Y-137668000D02*
X118364000Y-134923762D01*
X119239001Y-110202999D02*
X120001000Y-109441000D01*
X178421000Y-131986000D02*
X178421000Y-133491000D01*
X117763989Y-109138011D02*
X119239001Y-107662999D01*
X178421000Y-133491000D02*
X173643989Y-138268011D01*
X173643989Y-138268011D02*
X120859706Y-138268011D01*
X120859706Y-138268011D02*
X117763989Y-135172294D01*
X117763989Y-135172294D02*
X117763989Y-109138011D01*
X119239001Y-107662999D02*
X120001000Y-106901000D01*
X175881000Y-131986000D02*
X175881000Y-135015000D01*
X175881000Y-135015000D02*
X173515000Y-137381000D01*
X173515000Y-137381000D02*
X166991000Y-137381000D01*
X175881000Y-124681000D02*
X175881000Y-126586000D01*
X177151000Y-124681000D02*
X177151000Y-126586000D01*
M02*
